<svg width="21" height="21" viewBox="0 0 21 21" fill="none" xmlns="http://www.w3.org/2000/svg">
<g clip-path="url(#clip0_5_4103)">
<path d="M10.5938 0.656174C16.1057 0.656174 20.5743 5.12362 20.5743 10.6367C20.5743 16.1486 16.1057 20.6172 10.5938 20.6172C5.0819 20.6172 0.613281 16.1486 0.613281 10.6367C0.613281 5.12479 5.0819 0.656174 10.5938 0.656174ZM12.6659 12.8987L8.06981 10.678C8.07137 10.6503 8.07371 10.6219 8.07371 10.5942L12.6647 8.37625C12.9743 8.60939 13.3571 8.74896 13.7739 8.74896C14.7918 8.74896 15.6176 7.9244 15.6176 6.9053C15.6176 5.8858 14.7918 5.06124 13.7739 5.06124C12.7571 5.06124 11.931 5.88736 11.931 6.9053V6.90647L7.38014 9.10452C7.06435 8.85384 6.6663 8.70296 6.23238 8.70296C5.21445 8.70296 4.38833 9.52869 4.38833 10.547C4.38833 11.5649 5.21445 12.3907 6.23238 12.3907C6.60042 12.3907 6.94233 12.2811 7.23043 12.0952L11.9326 14.3681V14.3692C11.9326 15.3887 12.7571 16.2133 13.7751 16.2133C14.793 16.2133 15.6191 15.3876 15.6191 14.3692C15.6191 13.3501 14.793 12.5256 13.7751 12.5256C13.3583 12.5256 12.9743 12.6651 12.6659 12.8987Z" fill="#8E8B8C"/>
</g>
<defs>
<clipPath id="clip0_5_4103">
<rect width="20" height="20" fill="white" transform="matrix(1 0 0 -1 0.59375 20.6562)"/>
</clipPath>
</defs>
</svg>
